<svg xmlns="http://www.w3.org/2000/svg" xmlns:xlink="http://www.w3.org/1999/xlink" id="Capa_1" x="0px" y="0px" viewBox="0 0 480 480" style="enable-background:new 0 0 480 480;" xml:space="preserve"><g>			<linearGradient id="SVGID_1_" gradientUnits="userSpaceOnUse" x1="-59.3" y1="587.625" x2="29.225" y2="587.625" gradientTransform="matrix(8 0 0 -8 455 4941)">		<stop offset="0" style="stop-color:#E93E3A"></stop>		<stop offset="0.375" style="stop-color:#ED683C"></stop>		<stop offset="0.69" style="stop-color:#F3903F"></stop>		<stop offset="1" style="stop-color:#FDC70C"></stop>	</linearGradient>	<path style="fill:url(#SVGID_1_);" d="M240,0C107.452,0,0,107.452,0,240s107.452,240,240,240s240-107.452,240-240  C479.85,107.514,372.486,0.15,240,0z M240,464C116.288,464,16,363.712,16,240S116.288,16,240,16s224,100.288,224,224  C463.859,363.653,363.653,463.859,240,464z"></path>			<linearGradient id="SVGID_2_" gradientUnits="userSpaceOnUse" x1="-59.3" y1="587.625" x2="29.225" y2="587.625" gradientTransform="matrix(8 0 0 -8 455 4941)">		<stop offset="0" style="stop-color:#E93E3A"></stop>		<stop offset="0.375" style="stop-color:#ED683C"></stop>		<stop offset="0.69" style="stop-color:#F3903F"></stop>		<stop offset="1" style="stop-color:#FDC70C"></stop>	</linearGradient>	<path style="fill:url(#SVGID_2_);" d="M240,32C125.125,32,32,125.125,32,240s93.125,208,208,208s208-93.125,208-208  C447.872,125.178,354.822,32.128,240,32z M248,431.8V408h-16v23.8C132.315,427.523,52.477,347.685,48.2,248H72v-16H48.2  C52.477,132.315,132.315,52.477,232,48.2V72h16V48.2c99.685,4.277,179.523,84.115,183.8,183.8H408v16h23.8  C427.523,347.685,347.685,427.523,248,431.8z"></path></g><g>			<linearGradient id="SVGID_3_" gradientUnits="userSpaceOnUse" x1="-59.3" y1="595.3512" x2="29.225" y2="595.3512" gradientTransform="matrix(8 0 0 -8 455 4941)">		<stop offset="0" style="stop-color:#E93E3A"></stop>		<stop offset="0.375" style="stop-color:#ED683C"></stop>		<stop offset="0.69" style="stop-color:#F3903F"></stop>		<stop offset="1" style="stop-color:#FDC70C"></stop>	</linearGradient>	<path style="fill:url(#SVGID_3_);" d="M319.032,211.712l-11.312,11.312l8.968,8.976h-54.16c-2.42-6.775-7.753-12.108-14.528-14.528  V115.32l8.968,8.968l11.312-11.312l-22.624-22.632c-3.174-3.001-8.138-3.001-11.312,0l-22.624,22.632l11.312,11.312L232,115.32  v102.152c-12.476,4.384-19.036,18.052-14.652,30.528c4.384,12.476,18.052,19.036,30.528,14.652  c6.854-2.408,12.243-7.798,14.652-14.652h54.16l-8.968,8.976l11.312,11.312l22.624-22.632c3.123-3.124,3.123-8.188,0-11.312  L319.032,211.712z M240,248c-4.418,0-8-3.582-8-8s3.582-8,8-8s8,3.582,8,8S244.418,248,240,248z"></path>			<linearGradient id="SVGID_4_" gradientUnits="userSpaceOnUse" x1="-59.3" y1="579.625" x2="29.225" y2="579.625" gradientTransform="matrix(8 0 0 -8 455 4941)">		<stop offset="0" style="stop-color:#E93E3A"></stop>		<stop offset="0.375" style="stop-color:#ED683C"></stop>		<stop offset="0.69" style="stop-color:#F3903F"></stop>		<stop offset="1" style="stop-color:#FDC70C"></stop>	</linearGradient>	<path style="fill:url(#SVGID_4_);" d="M112,296h64v16h-64V296z"></path>			<linearGradient id="SVGID_5_" gradientUnits="userSpaceOnUse" x1="-59.3" y1="579.625" x2="29.225" y2="579.625" gradientTransform="matrix(8 0 0 -8 455 4941)">		<stop offset="0" style="stop-color:#E93E3A"></stop>		<stop offset="0.375" style="stop-color:#ED683C"></stop>		<stop offset="0.69" style="stop-color:#F3903F"></stop>		<stop offset="1" style="stop-color:#FDC70C"></stop>	</linearGradient>	<path style="fill:url(#SVGID_5_);" d="M192,296h16v16h-16V296z"></path>			<linearGradient id="SVGID_6_" gradientUnits="userSpaceOnUse" x1="-59.3" y1="575.625" x2="29.225" y2="575.625" gradientTransform="matrix(8 0 0 -8 455 4941)">		<stop offset="0" style="stop-color:#E93E3A"></stop>		<stop offset="0.375" style="stop-color:#ED683C"></stop>		<stop offset="0.69" style="stop-color:#F3903F"></stop>		<stop offset="1" style="stop-color:#FDC70C"></stop>	</linearGradient>	<path style="fill:url(#SVGID_6_);" d="M112,328h96v16h-96V328z"></path></g><g></g><g></g><g></g><g></g><g></g><g></g><g></g><g></g><g></g><g></g><g></g><g></g><g></g><g></g><g></g></svg>