<svg xmlns="http://www.w3.org/2000/svg" xmlns:xlink="http://www.w3.org/1999/xlink" height="512" viewBox="0 0 64 64" width="512"><linearGradient id="New_Gradient_Swatch_1" gradientUnits="userSpaceOnUse" x1="28" x2="28" y1="-3.307" y2="62.384"><stop offset="0" stop-color="#fff33b"></stop><stop offset=".014" stop-color="#fee72e"></stop><stop offset=".042" stop-color="#fed51b"></stop><stop offset=".07" stop-color="#fdca10"></stop><stop offset=".1" stop-color="#fdc70c"></stop><stop offset=".4" stop-color="#f3903f"></stop><stop offset=".8" stop-color="#ed683c"></stop><stop offset="1" stop-color="#e93e3a"></stop></linearGradient><linearGradient id="New_Gradient_Swatch_1-2" x1="32" x2="32" xlink:href="#New_Gradient_Swatch_1" y1="-3.307" y2="62.384"></linearGradient><linearGradient id="New_Gradient_Swatch_1-4" x1="51" x2="51" xlink:href="#New_Gradient_Swatch_1" y1="-3.307" y2="62.384"></linearGradient><g id="security-lock-protection-bitcoin-money"><path d="m28 13a16 16 0 1 0 16 16 16.021 16.021 0 0 0 -16-16zm0 30a14 14 0 1 1 14-14 14.015 14.015 0 0 1 -14 14z" fill="url(#New_Gradient_Swatch_1)"></path><path d="m59 42v-4a8.022 8.022 0 0 0 -5.07-7.44c.04-.56.07-1.14.07-1.74v-17.82a1 1 0 0 0 -.7-.95l-25-8a.883.883 0 0 0 -.6 0l-25 8a1 1 0 0 0 -.7.95v17.82a24.937 24.937 0 0 0 8.92 19.14l16.44 13.81a1.005 1.005 0 0 0 1.28 0l11.36-9.54v5.77a4 4 0 0 0 4 4h14a4 4 0 0 0 4-4v-13a3.009 3.009 0 0 0 -3-3zm-2-4v4h-2v-4a4 4 0 0 0 -8 0v4h-2v-4a6 6 0 0 1 12 0zm-4.35-1.13a1.99 1.99 0 0 1 .35 1.13v4h-2.77a25.329 25.329 0 0 0 2.42-5.13zm-3.65 3.27v-2.14a1.991 1.991 0 0 1 1.82-1.98 22.334 22.334 0 0 1 -1.82 4.12zm-9 5.86v3.61l-12 10.08-15.8-13.27a22.922 22.922 0 0 1 -8.2-17.6v-17.09l24-7.68 24 7.68v17.09c0 .42-.01.84-.03 1.24-.32-.03-.64-.06-.97-.06a8.011 8.011 0 0 0 -8 8v4.14a4 4 0 0 0 -3 3.86zm20 12a2.006 2.006 0 0 1 -2 2h-14a2.006 2.006 0 0 1 -2-2v-12a2.006 2.006 0 0 1 2-2h15a1 1 0 0 1 1 1z" fill="url(#New_Gradient_Swatch_1-2)"></path><path d="m33 27a2.986 2.986 0 0 0 -2.01-2.82l.01-2.18h-2l-.01 2h-2l.01-2h-2l-.01 2h-1.99v2h2v6h-2v2h1.99l-.01 1.96 2 .01.01-1.97h2l-.01 1.96 2 .01.02-2.15a3.01 3.01 0 0 0 2-2.82 2.974 2.974 0 0 0 -.78-2 2.974 2.974 0 0 0 .78-2zm-3 5h-3v-2h3a1 1 0 0 1 0 2zm0-4h-3v-2h3a1 1 0 0 1 0 2z" fill="url(#New_Gradient_Swatch_1)"></path><path d="m51 46a2.993 2.993 0 0 0 -1 5.816v6.184h2v-6.184a2.993 2.993 0 0 0 -1-5.816zm0 4a1 1 0 1 1 1-1 1 1 0 0 1 -1 1z" fill="url(#New_Gradient_Swatch_1-4)"></path></g></svg>