<svg xmlns="http://www.w3.org/2000/svg" xmlns:xlink="http://www.w3.org/1999/xlink" height="512" viewBox="0 0 64 64" width="512"><linearGradient id="New_Gradient_Swatch" gradientUnits="userSpaceOnUse" x1="44" x2="44" y1="63.447" y2=".649"><stop offset="0" stop-color="#e93e3a"></stop><stop offset=".35" stop-color="#ed683c"></stop><stop offset=".7" stop-color="#f3903f"></stop><stop offset="1" stop-color="#fdc70c"></stop></linearGradient><linearGradient id="New_Gradient_Swatch-2" x1="36" x2="36" xlink:href="#New_Gradient_Swatch" y1="63.447" y2=".649"></linearGradient><linearGradient id="New_Gradient_Swatch-3" x1="32" x2="32" xlink:href="#New_Gradient_Swatch" y1="63.447" y2=".649"></linearGradient><linearGradient id="New_Gradient_Swatch-6" x1="12" x2="12" xlink:href="#New_Gradient_Swatch" y1="63.447" y2=".649"></linearGradient><linearGradient id="New_Gradient_Swatch-9" x1="10" x2="10" xlink:href="#New_Gradient_Swatch" y1="63.447" y2=".649"></linearGradient><linearGradient id="New_Gradient_Swatch-10" x1="14" x2="14" xlink:href="#New_Gradient_Swatch" y1="63.447" y2=".649"></linearGradient><linearGradient id="New_Gradient_Swatch-11" x1="35.75" x2="35.75" xlink:href="#New_Gradient_Swatch" y1="63.447" y2=".649"></linearGradient><linearGradient id="New_Gradient_Swatch-13" x1="49" x2="49" xlink:href="#New_Gradient_Swatch" y1="63.447" y2=".649"></linearGradient><linearGradient id="New_Gradient_Swatch-15" x1="7" x2="7" xlink:href="#New_Gradient_Swatch" y1="63.447" y2=".649"></linearGradient><linearGradient id="New_Gradient_Swatch-16" x1="19" x2="19" xlink:href="#New_Gradient_Swatch" y1="63.447" y2=".649"></linearGradient><g id="Investment-Startup-Smartphone-Money_tree-Online" data-name="Investment-Startup-Smartphone-Money tree-Online"><path d="m57 2h-26a5.006 5.006 0 0 0 -5 5v50a5.006 5.006 0 0 0 5 5h26a5.006 5.006 0 0 0 5-5v-50a5.006 5.006 0 0 0 -5-5zm3 55a3 3 0 0 1 -3 3h-26a3 3 0 0 1 -3-3v-50a3 3 0 0 1 3-3h26a3 3 0 0 1 3 3z" fill="url(#New_Gradient_Swatch)"></path><path d="m35 6h2v2h-2z" fill="url(#New_Gradient_Swatch-2)"></path><path d="m31 6h2v2h-2z" fill="url(#New_Gradient_Swatch-3)"></path><path d="m39 6h10v2h-10z" fill="url(#New_Gradient_Swatch)"></path><path d="m46 52h-4a3 3 0 0 0 0 6h4a3 3 0 0 0 0-6zm0 4h-4a1 1 0 0 1 0-2h4a1 1 0 0 1 0 2z" fill="url(#New_Gradient_Swatch)"></path><path d="m20.032 41.475-1.879-.684a4.9 4.9 0 0 0 -5.153 1.098v-1.958a8 8 0 1 0 -2 0v1.958a4.9 4.9 0 0 0 -5.153-1.1l-1.879.684a1 1 0 0 0 -.6 1.281l.684 1.88a5 5 0 0 0 6.408 2.988l.538-.2v2.578h-5.998a1 1 0 0 0 -.98 1.2l2 10a1 1 0 0 0 .98.8h10a1 1 0 0 0 .98-.8l2-10a1 1 0 0 0 -.98-1.2h-6v-2.572l.538.2a5 5 0 0 0 6.408-2.989l.684-1.879a1 1 0 0 0 -.598-1.285zm-10.253 4.269a3 3 0 0 1 -3.846-1.792l-.342-.94.94-.343a3 3 0 0 1 3.845 1.793l.342.94zm6.401 14.256h-8.36l-1.6-8h11.56zm-10.18-28a6 6 0 1 1 6 6 6.006 6.006 0 0 1 -6-6zm12.067 11.951a3 3 0 0 1 -3.846 1.794l-.939-.343.342-.94a3 3 0 0 1 3.845-1.793l.94.343z" fill="url(#New_Gradient_Swatch-6)"></path><path d="m45 27h-2a1 1 0 0 1 -1-1h-2a3 3 0 0 0 3 3v1h2v-1a3 3 0 0 0 0-6h-2a1 1 0 0 1 0-2h2a1 1 0 0 1 1 1h2a3 3 0 0 0 -3-3v-1h-2v1a3 3 0 0 0 0 6h2a1 1 0 0 1 0 2z" fill="url(#New_Gradient_Swatch)"></path><path d="m44 34a10 10 0 1 0 -10-10 10.011 10.011 0 0 0 10 10zm0-18a8 8 0 1 1 -8 8 8.009 8.009 0 0 1 8-8z" fill="url(#New_Gradient_Swatch)"></path><path d="m12 34a2 2 0 0 1 -2-2h-2a4 4 0 0 0 4 4z" fill="url(#New_Gradient_Swatch-9)"></path><path d="m14 32h2a4 4 0 0 0 -4-4v2a2 2 0 0 1 2 2z" fill="url(#New_Gradient_Swatch-10)"></path><path d="m34.293 41.707a1 1 0 0 0 1.414 0l3.5-3.5-1.414-1.414-2.793 2.793-1.293-1.293-1.414 1.414z" fill="url(#New_Gradient_Swatch-11)"></path><path d="m37.793 42.793-2.793 2.793-1.293-1.293-1.414 1.414 2 2a1 1 0 0 0 1.414 0l3.5-3.5z" fill="url(#New_Gradient_Swatch-11)"></path><path d="m42 39h14v2h-14z" fill="url(#New_Gradient_Swatch-13)"></path><path d="m42 45h14v2h-14z" fill="url(#New_Gradient_Swatch-13)"></path><path d="m6 22h2v-2h2v-2h-2v-2h-2v2h-2v2h2z" fill="url(#New_Gradient_Swatch-15)"></path><path d="m20 11h-2v2h-2v2h2v2h2v-2h2v-2h-2z" fill="url(#New_Gradient_Swatch-16)"></path></g></svg>