<?xml version="1.0" encoding="UTF-8"?>
<svg id="Layer_1" data-name="Layer 1" xmlns="http://www.w3.org/2000/svg" viewBox="0 0 647.46 656.59">
  <path d="M643.49,125.12v1.86H0V0H599.51c5.05,5.76,9.73,11.83,14,18.24,19.98,29.79,29.98,65.44,29.98,106.88Z"/>
  <path d="M640.05,176.54c-3.25,18.27-8.89,34.32-16.91,48.13-13.57,23.35-29.79,41.47-48.62,54.26-16.11,10.96-31.65,19.17-46.64,24.59H0v-126.98H640.05Z"/>
  <path d="M647.12,529.61c-2.88,34.16-12.95,64.27-30.2,90.31-9.04,13.63-19.51,25.86-31.4,36.67H0v-126.98H647.12Z"/>
  <path d="M647.46,480.06H0v-126.98H579.81c18.4,12.36,34.16,29.67,47.29,51.97,11.77,20.04,18.55,45.03,20.35,75.01Z"/>
  <path d="M643.49,125.12v1.86H0V0H599.51c5.05,5.76,9.73,11.83,14,18.24,19.98,29.79,29.98,65.44,29.98,106.88Z"/>
  <path d="M640.05,176.54c-3.25,18.27-8.89,34.32-16.91,48.13-13.57,23.35-29.79,41.47-48.62,54.26-16.11,10.96-31.65,19.17-46.64,24.59H0v-126.98H640.05Z"/>
  <path d="M647.46,480.06H0v-126.98H579.81c18.4,12.36,34.16,29.67,47.29,51.97,11.77,20.04,18.55,45.03,20.35,75.01Z"/>
  <path d="M647.12,529.61c-2.88,34.16-12.95,64.27-30.2,90.31-9.04,13.63-19.51,25.86-31.4,36.67H0v-126.98H647.12Z"/>
</svg>